<svg xmlns="http://www.w3.org/2000/svg" width="820" height="120" viewBox="0 0 820 120">
  <defs>
    <marker id="arr" markerWidth="8" markerHeight="6" refX="7" refY="3" orient="auto">
      <polygon points="0 0, 8 3, 0 6" fill="#888"/>
    </marker>
  </defs>
  <rect width="820" height="120" fill="white"/>
  <line x1="190.0" y1="60.0" x2="230.0" y2="60.0" stroke="#888" stroke-width="1.5" marker-end="url(#arr)"/><rect x="56.4" y="65.0" width="315.2" height="13" fill="white" fill-opacity="0.9" rx="2"/><text x="210.0" y="74.0" text-anchor="middle" font-family="Arial,sans-serif" font-size="9" fill="#555">Interage via WhatsApp&amp;nbsp;/ Gerencia réguas</text><line x1="390.0" y1="60.0" x2="430.0" y2="60.0" stroke="#888" stroke-width="1.5" marker-end="url(#arr)"/><rect x="330.0" y="65.0" width="168.0" height="13" fill="white" fill-opacity="0.9" rx="2"/><text x="410.0" y="74.0" text-anchor="middle" font-family="Arial,sans-serif" font-size="9" fill="#555">Direciona para negociação</text><line x1="590.0" y1="60.0" x2="630.0" y2="60.0" stroke="#888" stroke-width="1.5" marker-end="url(#arr)"/><rect x="475.6" y="65.0" width="276.8" height="13" fill="white" fill-opacity="0.9" rx="2"/><text x="610.0" y="74.0" text-anchor="middle" font-family="Arial,sans-serif" font-size="9" fill="#555">Consulta faturas &amp; opções de pagamento</text><line x1="630.0" y1="60.0" x2="590.0" y2="60.0" stroke="#888" stroke-width="1.5" marker-end="url(#arr)"/><rect x="530.0" y="37.0" width="168.0" height="13" fill="white" fill-opacity="0.9" rx="2"/><text x="610.0" y="46.0" text-anchor="middle" font-family="Arial,sans-serif" font-size="9" fill="#555">Registra acordo (Webhook)</text>
  <ellipse cx="110.0" cy="60.0" rx="80.0" ry="30.0" fill="#fff2cc" stroke="#d6b656" stroke-width="1.5"/><text x="110.0" y="64.0" text-anchor="middle" font-family="Arial,sans-serif" font-size="11" fill="#333">Cliente (WhatsApp)</text><rect x="230.0" y="30.0" width="160.0" height="60.0" rx="6" fill="#dae8fc" stroke="#6c8ebf" stroke-width="1.5"/><text x="310.0" y="64.0" text-anchor="middle" font-family="Arial,sans-serif" font-size="11" fill="#333">Zenvia Customer Cloud (ZCC)</text><rect x="430.0" y="30.0" width="160.0" height="60.0" rx="6" fill="#d5e8d4" stroke="#82b366" stroke-width="1.5"/><text x="510.0" y="64.0" text-anchor="middle" font-family="Arial,sans-serif" font-size="11" fill="#333">Agente Autônomo (Zenvia NLU)</text><rect x="630.0" y="30.0" width="160.0" height="60.0" rx="6" fill="#f8cecc" stroke="#b85450" stroke-width="1.5"/><text x="710.0" y="64.0" text-anchor="middle" font-family="Arial,sans-serif" font-size="11" fill="#333">Sistema Legado (CSU / Porto Bank)</text>
</svg>